<svg xmlns="http://www.w3.org/2000/svg" viewBox="0 0 260 760" role="img" aria-labelledby="title desc">
  <title id="title">Grüne Bierflasche ohne Muster</title>
  <desc id="desc">Eigenständige professionelle SVG-Vektorgrafik einer grünen Bierflasche mit Kronkorken, Glasreflexen und transparentem Hintergrund.</desc>
  <defs>
    <linearGradient id="bodyGlass" x1="38" y1="380" x2="222" y2="380" gradientUnits="userSpaceOnUse">
      <stop offset="0" stop-color="#06270b"/>
      <stop offset="0.09" stop-color="#0b4b13"/>
      <stop offset="0.24" stop-color="#177317"/>
      <stop offset="0.39" stop-color="#78c91a"/>
      <stop offset="0.50" stop-color="#d7ff3a"/>
      <stop offset="0.60" stop-color="#77c817"/>
      <stop offset="0.78" stop-color="#116417"/>
      <stop offset="1" stop-color="#041e09"/>
    </linearGradient>
    <linearGradient id="innerGlow" x1="67" y1="390" x2="195" y2="390" gradientUnits="userSpaceOnUse">
      <stop offset="0" stop-color="#124812" stop-opacity="0.55"/>
      <stop offset="0.36" stop-color="#baff20" stop-opacity="0.72"/>
      <stop offset="0.57" stop-color="#f0ff5b" stop-opacity="0.58"/>
      <stop offset="1" stop-color="#0b3f0e" stop-opacity="0.72"/>
    </linearGradient>
    <linearGradient id="neckGlass" x1="77" y1="160" x2="183" y2="160" gradientUnits="userSpaceOnUse">
      <stop offset="0" stop-color="#082b0c"/>
      <stop offset="0.30" stop-color="#3a9c18"/>
      <stop offset="0.49" stop-color="#d2ff35"/>
      <stop offset="0.67" stop-color="#319218"/>
      <stop offset="1" stop-color="#05230a"/>
    </linearGradient>
    <linearGradient id="capMetal" x1="68" y1="48" x2="192" y2="48" gradientUnits="userSpaceOnUse">
      <stop offset="0" stop-color="#777"/>
      <stop offset="0.18" stop-color="#e9e9e9"/>
      <stop offset="0.39" stop-color="#bdbdbd"/>
      <stop offset="0.58" stop-color="#fafafa"/>
      <stop offset="0.79" stop-color="#a0a0a0"/>
      <stop offset="1" stop-color="#555"/>
    </linearGradient>
    <linearGradient id="leftHighlight" x1="68" y1="110" x2="104" y2="675" gradientUnits="userSpaceOnUse">
      <stop offset="0" stop-color="#fff" stop-opacity="0.64"/>
      <stop offset="0.22" stop-color="#fff" stop-opacity="0.36"/>
      <stop offset="0.55" stop-color="#fff" stop-opacity="0.15"/>
      <stop offset="1" stop-color="#fff" stop-opacity="0.04"/>
    </linearGradient>
    <radialGradient id="centerLight" cx="49%" cy="52%" r="52%">
      <stop offset="0" stop-color="#efff4a" stop-opacity="0.62"/>
      <stop offset="0.40" stop-color="#a7ef16" stop-opacity="0.34"/>
      <stop offset="1" stop-color="#144a10" stop-opacity="0"/>
    </radialGradient>
    <filter id="softShadow" x="-25%" y="-20%" width="150%" height="150%">
      <feDropShadow dx="0" dy="11" stdDeviation="8" flood-color="#000" flood-opacity="0.22"/>
    </filter>
    <filter id="blurGlow" x="-20%" y="-20%" width="140%" height="140%">
      <feGaussianBlur stdDeviation="7"/>
    </filter>
  </defs>

  <ellipse cx="130" cy="716" rx="88" ry="18" fill="#000" opacity="0.14"/>

  <g filter="url(#softShadow)">
    <path fill="#042009" d="M86 77h88l8 172c2 38 17 69 44 104 13 17 20 39 20 63v251c0 29-24 53-53 53H67c-29 0-53-24-53-53V416c0-24 7-46 20-63 27-35 42-66 44-104l8-172Z"/>
    <path fill="url(#bodyGlass)" d="M94 91h72l8 160c2 43 20 77 46 112 9 13 14 30 14 49v249c0 22-18 40-40 40H66c-22 0-40-18-40-40V412c0-19 5-36 14-49 26-35 44-69 46-112l8-160Z"/>
    <path fill="url(#neckGlass)" d="M98 90h64l7 160c1 24 7 46 18 66-16 9-36 14-57 14-21 0-41-5-57-14 11-20 17-42 18-66l7-160Z"/>
    <path fill="url(#innerGlow)" d="M63 376c24-32 38-65 41-106h52c3 41 17 74 41 106 13 18 19 40 19 66v202c0 21-17 38-38 38H82c-21 0-38-17-38-38V442c0-26 6-48 19-66Z"/>
    <path fill="url(#centerLight)" d="M48 379c29-39 44-77 46-128l6-147h60l6 147c2 51 17 89 46 128 12 16 17 37 17 62v197c0 24-20 44-44 44H75c-24 0-44-20-44-44V441c0-25 5-46 17-62Z"/>

    <path fill="#061f08" opacity="0.32" d="M180 353c22 25 35 52 35 91v193c0 26-20 47-46 47h-26c30-19 38-48 38-91V353Z"/>
    <path fill="#001906" opacity="0.35" d="M32 627c11 14 45 26 98 26s87-12 98-26v31c0 24-19 43-43 43H75c-24 0-43-19-43-43v-31Z"/>

    <path fill="url(#leftHighlight)" d="M75 113h21l-5 142c-2 48-17 91-42 126-6 8-9 22-9 39v202c0 23 15 43 37 50 6 2 12-3 10-9-7-39-11-97-11-174 0-70 8-145 14-213 6-70 1-126-15-163Z"/>
    <path fill="#fff" opacity="0.30" d="M154 111h15l6 139c1 36 13 68 35 99 4 6 7 14 8 24-31-43-51-78-53-123l-11-139Z"/>
    <path fill="#fff" opacity="0.20" d="M105 342c16 8 35 8 51 0 15 20 24 44 27 74-25-11-79-11-105 0 3-30 12-54 27-74Z"/>

    <g opacity="0.45">
      <circle cx="165" cy="380" r="3.8" fill="#e7ff82"/>
      <circle cx="181" cy="431" r="2.5" fill="#e7ff82"/>
      <circle cx="153" cy="477" r="3.2" fill="#e7ff82"/>
      <circle cx="175" cy="540" r="4.3" fill="#e7ff82"/>
      <circle cx="96" cy="394" r="2.6" fill="#e7ff82"/>
      <circle cx="76" cy="475" r="3.5" fill="#e7ff82"/>
      <circle cx="111" cy="565" r="2.8" fill="#e7ff82"/>
      <circle cx="145" cy="613" r="3.4" fill="#e7ff82"/>
    </g>
    <g fill="none" stroke="#0b330b" stroke-width="2" opacity="0.48">
      <circle cx="170" cy="472" r="4.5"/>
      <circle cx="91" cy="525" r="3.5"/>
      <circle cx="139" cy="425" r="3"/>
      <circle cx="157" cy="584" r="3.5"/>
    </g>
  </g>

  <g>
    <path fill="url(#capMetal)" d="M76 38c0-10 8-18 18-18h72c10 0 18 8 18 18v32H76V38Z"/>
    <path fill="#efefef" d="M68 61h124v18c0 9-7 16-16 16H84c-9 0-16-7-16-16V61Z"/>
    <path fill="#777" opacity="0.42" d="M68 72h124v8c0 8-6 15-14 15H82c-8 0-14-7-14-15v-8Z"/>
    <g fill="#8b8b8b" opacity="0.9">
      <path d="M72 61h10l-5 22H67z"/>
      <path d="M91 61h10l-5 22H86z"/>
      <path d="M110 61h10l-5 22h-10z"/>
      <path d="M129 61h10l-5 22h-10z"/>
      <path d="M148 61h10l-5 22h-10z"/>
      <path d="M167 61h10l-5 22h-10z"/>
    </g>
    <path fill="#fff" opacity="0.65" d="M91 29h75c5 0 9 4 10 9H83c1-5 5-9 8-9Z"/>
    <rect x="78" y="50" width="104" height="3" rx="1.5" fill="#fff" opacity="0.55"/>
  </g>
</svg>
